<?xml version="1.0" encoding="UTF-8" standalone="no"?>
<!-- Created with Inkscape (http://www.inkscape.org/) -->

<svg
   xmlns:dc="http://purl.org/dc/elements/1.1/"
   xmlns:cc="http://creativecommons.org/ns#"
   xmlns:rdf="http://www.w3.org/1999/02/22-rdf-syntax-ns#"
   xmlns:svg="http://www.w3.org/2000/svg"
   xmlns="http://www.w3.org/2000/svg"
   xmlns:sodipodi="http://sodipodi.sourceforge.net/DTD/sodipodi-0.dtd"
   xmlns:inkscape="http://www.inkscape.org/namespaces/inkscape"
   width="192"
   height="108"
   viewBox="0 0 50.800001 28.574999"
   version="1.1"
   id="svg1393"
   inkscape:version="0.92.3 (2405546, 2018-03-11)"
   sodipodi:docname="nemean_logo.svg">
  <defs
     id="defs1387">
    <clipPath
       clipPathUnits="userSpaceOnUse"
       id="clipPath18">
      <path
         d="M 0,400 H 400 V 0 H 0 Z"
         id="path16"
         inkscape:connector-curvature="0" />
    </clipPath>
  </defs>
  <sodipodi:namedview
     id="base"
     pagecolor="#ffffff"
     bordercolor="#666666"
     borderopacity="1.0"
     inkscape:pageopacity="0.0"
     inkscape:pageshadow="2"
     inkscape:zoom="2.8"
     inkscape:cx="28.395098"
     inkscape:cy="107.04718"
     inkscape:document-units="mm"
     inkscape:current-layer="layer1"
     showgrid="false"
     units="px"
     inkscape:window-width="1920"
     inkscape:window-height="1021"
     inkscape:window-x="0"
     inkscape:window-y="0"
     inkscape:window-maximized="1" />
  <metadata
     id="metadata1390">
    <rdf:RDF>
      <cc:Work
         rdf:about="">
        <dc:format>image/svg+xml</dc:format>
        <dc:type
           rdf:resource="http://purl.org/dc/dcmitype/StillImage" />
        <dc:title></dc:title>
      </cc:Work>
    </rdf:RDF>
  </metadata>
  <g
     inkscape:label="Layer 1"
     inkscape:groupmode="layer"
     id="layer1"
     transform="translate(0,-268.42501)">
    <g
       transform="matrix(0.15767093,0,0,-0.15767093,-21.177481,319.14842)"
       id="g12"
       style="fill:#f2f2f2;fill-opacity:1">
      <g
         id="g14"
         clip-path="url(#clipPath18)"
         style="fill:#f2f2f2;fill-opacity:1">
        <g
           id="g20"
           transform="translate(201.7881,297.5391)"
           style="fill:#f2f2f2;fill-opacity:1">
          <path
             d="m 0,0 58.283,-33.65 c 1.125,-0.646 1.755,-1.823 1.756,-3.033 l 0.015,-67.352 c 10e-4,-1.391 -0.809,-2.594 -1.982,-3.163 l -58.103,-33.546 c -1.137,-0.659 -2.49,-0.607 -3.545,0.018 l -58.296,33.658 c -1.121,0.649 -1.748,1.825 -1.749,3.033 l -0.009,67.352 c 0,1.42 0.843,2.644 2.056,3.198 L -3.53,0.025 C -2.396,0.677 -1.05,0.623 0,0 m 14.996,-54.02 c 3.995,2.314 7.505,-3.757 3.513,-6.065 l -8.437,-4.871 v -11.876 c 0,-1.392 -0.808,-2.594 -1.981,-3.163 l -6.379,-3.683 v -6.827 l 13.051,-7.535 10.392,5.81 v 50.094 H -28.73 V -92.23 l 10.399,-5.814 13.045,7.531 -0.001,6.842 -6.59,3.806 c -1.125,0.646 -1.755,1.822 -1.756,3.033 l -0.014,11.808 -8.332,4.464 c -4.068,2.176 -0.762,8.345 3.294,6.176 l 9.919,-5.317 c 1.26,-0.533 2.145,-1.781 2.145,-3.237 v -11.883 l 9.667,0.007 0.009,11.876 c 10e-4,1.209 0.628,2.384 1.748,3.034 z m -7.355,-48.001 -9.435,5.447 -9.429,-5.445 9.436,-5.274 z m -39.885,66.912 h 6.066 l -6.054,10.486 -20.881,-12.056 17.357,-10.021 -10e-4,8.077 c 0,1.94 1.573,3.514 3.513,3.514 m 14.144,0 h 12.799 v 26.035 l -20.873,-12.052 z m 19.827,0 h 12.79 l 8.076,13.987 -20.866,12.048 z m 20.884,0 c 10.727,0 9.571,0.688 9.571,-11.59 l 17.356,10.02 -20.875,12.053 z m 9.571,-19.684 V -66.86 h 20.845 v 24.102 z m 0,-19.065 V -85.924 L 53.027,-97.96 v 24.102 z m 0,-20.16 c 0,-1.646 -0.64,-2.742 -2.065,-3.461 l -9.228,-5.16 7.765,-13.45 20.878,12.054 z m -17.401,-12.035 -13.054,-7.3 v -18.283 l 20.869,12.049 z m -20.082,-7.3 -13.05,7.296 -7.813,-13.534 20.863,-12.046 z m -19.169,10.717 -9.475,5.298 c -1.325,0.738 -1.8,1.945 -1.8,3.327 l -17.362,-10.024 20.872,-12.051 z m -11.277,16.717 -0.003,12.061 H -56.603 V -97.96 Z m -0.004,19.059 -0.003,12.065 -20.849,12.037 V -66.86 Z"
             style="fill:#f2f2f2;fill-opacity:1;fill-rule:nonzero;stroke:none"
             id="path22"
             inkscape:connector-curvature="0" />
        </g>
      </g>
    </g>
    <text
       style="font-variant:normal;font-weight:normal;font-stretch:normal;font-size:6.55491781px;font-family:'Days One';-inkscape-font-specification:DaysOne-Regular;writing-mode:lr-tb;fill:#f2f2f2;fill-opacity:1;fill-rule:nonzero;stroke:none;stroke-width:0.17968823;"
       id="text26"
       x="20.518892"
       y="286.4527">
      <tspan
         x="20.518892"
         sodipodi:role="line"
         id="tspan24"
         y="286.4527"
         style="font-style:normal;font-variant:normal;font-weight:bold;font-stretch:normal;font-family:sans-serif;-inkscape-font-specification:'sans-serif Bold';fill:#f2f2f2;fill-opacity:1;stroke-width:0.17968823;">Nemean</tspan>
    </text>
  </g>
</svg>
